<?xml version="1.0" encoding="UTF-8" standalone="no"?>
<svg
   xmlns:dc="http://purl.org/dc/elements/1.1/"
   xmlns:cc="http://creativecommons.org/ns#"
   xmlns:rdf="http://www.w3.org/1999/02/22-rdf-syntax-ns#"
   xmlns:svg="http://www.w3.org/2000/svg"
   xmlns="http://www.w3.org/2000/svg"
   xmlns:sodipodi="http://sodipodi.sourceforge.net/DTD/sodipodi-0.dtd"
   xmlns:inkscape="http://www.inkscape.org/namespaces/inkscape"
   inkscape:export-ydpi="576"
   inkscape:export-xdpi="576"
   inkscape:export-filename="D:\Project Real\adnan #2.2\export solid\PNG\18 - Restaurant.png"
   width="64pt"
   height="64pt"
   viewBox="0 0 22.577778 22.577778"
   version="1.1"
   id="svg831"
   inkscape:version="1.0 (4035a4fb49, 2020-05-01)"
   sodipodi:docname="19 - Bathtub.svg">
  <defs
     id="defs825">
    <pattern
       id="EMFhbasepattern"
       patternUnits="userSpaceOnUse"
       width="6"
       height="6"
       x="0"
       y="0" />
    <pattern
       id="EMFhbasepattern-9"
       patternUnits="userSpaceOnUse"
       width="6"
       height="6"
       x="0"
       y="0" />
    <pattern
       id="EMFhbasepattern-0"
       patternUnits="userSpaceOnUse"
       width="6"
       height="6"
       x="0"
       y="0" />
    <pattern
       id="EMFhbasepattern-7"
       patternUnits="userSpaceOnUse"
       width="6"
       height="6"
       x="0"
       y="0" />
    <pattern
       id="EMFhbasepattern-2"
       patternUnits="userSpaceOnUse"
       width="6"
       height="6"
       x="0"
       y="0" />
    <pattern
       id="EMFhbasepattern-98"
       patternUnits="userSpaceOnUse"
       width="6"
       height="6"
       x="0"
       y="0" />
    <pattern
       id="EMFhbasepattern-6"
       patternUnits="userSpaceOnUse"
       width="6"
       height="6"
       x="0"
       y="0" />
    <pattern
       id="EMFhbasepattern-01"
       patternUnits="userSpaceOnUse"
       width="6"
       height="6"
       x="0"
       y="0" />
    <pattern
       id="EMFhbasepattern-07"
       patternUnits="userSpaceOnUse"
       width="6"
       height="6"
       x="0"
       y="0" />
    <pattern
       id="EMFhbasepattern-8"
       patternUnits="userSpaceOnUse"
       width="6"
       height="6"
       x="0"
       y="0" />
    <pattern
       id="EMFhbasepattern-4"
       patternUnits="userSpaceOnUse"
       width="6"
       height="6"
       x="0"
       y="0" />
    <pattern
       id="EMFhbasepattern-40"
       patternUnits="userSpaceOnUse"
       width="6"
       height="6"
       x="0"
       y="0" />
    <pattern
       id="EMFhbasepattern-08"
       patternUnits="userSpaceOnUse"
       width="6"
       height="6"
       x="0"
       y="0" />
    <pattern
       id="EMFhbasepattern-04"
       patternUnits="userSpaceOnUse"
       width="6"
       height="6"
       x="0"
       y="0" />
    <pattern
       id="EMFhbasepattern-014"
       patternUnits="userSpaceOnUse"
       width="6"
       height="6"
       x="0"
       y="0" />
    <pattern
       id="EMFhbasepattern-27"
       patternUnits="userSpaceOnUse"
       width="6"
       height="6"
       x="0"
       y="0" />
    <pattern
       id="EMFhbasepattern-09"
       patternUnits="userSpaceOnUse"
       width="6"
       height="6"
       x="0"
       y="0" />
    <pattern
       id="EMFhbasepattern-5"
       patternUnits="userSpaceOnUse"
       width="6"
       height="6"
       x="0"
       y="0" />
    <pattern
       id="EMFhbasepattern-018"
       patternUnits="userSpaceOnUse"
       width="6"
       height="6"
       x="0"
       y="0" />
  </defs>
  <sodipodi:namedview
     id="base"
     pagecolor="#ffffff"
     bordercolor="#666666"
     borderopacity="1.0"
     inkscape:pageopacity="0.0"
     inkscape:pageshadow="2"
     inkscape:zoom="6.2578125"
     inkscape:cx="42.666667"
     inkscape:cy="42.666667"
     inkscape:document-units="pt"
     inkscape:current-layer="layer1"
     showgrid="false"
     units="pt"
     inkscape:window-width="1366"
     inkscape:window-height="706"
     inkscape:window-x="-8"
     inkscape:window-y="-8"
     inkscape:window-maximized="1"
     inkscape:pagecheckerboard="true"
     inkscape:showpageshadow="false"
     inkscape:object-paths="true"
     inkscape:snap-intersection-paths="true"
     inkscape:snap-smooth-nodes="true"
     inkscape:snap-midpoints="true"
     showguides="true"
     inkscape:snap-bbox="true"
     inkscape:bbox-nodes="true"
     inkscape:snap-nodes="false"
     inkscape:snap-global="true"
     inkscape:document-rotation="0">
    <inkscape:grid
       type="xygrid"
       id="grid1378" />
    <sodipodi:guide
       position="0.97013831,21.607643"
       orientation="78.000048,0"
       id="guide1380"
       inkscape:locked="false" />
    <sodipodi:guide
       position="0.97013831,0.97013129"
       orientation="0,78.000005"
       id="guide1382"
       inkscape:locked="false" />
    <sodipodi:guide
       position="21.607639,0.97013129"
       orientation="-78.000048,0"
       id="guide1384"
       inkscape:locked="false" />
    <sodipodi:guide
       position="21.607639,21.607643"
       orientation="0,-78.000005"
       id="guide1386"
       inkscape:locked="false" />
  </sodipodi:namedview>
  <metadata
     id="metadata828">
    <rdf:RDF>
      <cc:Work
         rdf:about="">
        <dc:format>image/svg+xml</dc:format>
        <dc:type
           rdf:resource="http://purl.org/dc/dcmitype/StillImage" />
        <dc:title></dc:title>
      </cc:Work>
    </rdf:RDF>
  </metadata>
  <g
     inkscape:label="Icon"
     inkscape:groupmode="layer"
     id="layer1"
     transform="translate(0,-274.42223)">
    <path
       sodipodi:nodetypes="ssscccsccccssssssssscscssssssssssssccccscccccccccccccccccccccsccsccssccsccsscsccssccccccccccccccccsscccccccccccccccccccccccccccccc"
       d="m 4.8447874,275.39236 c -1.8344183,0 -3.3292798,1.49227 -3.3292798,3.32668 v 16.31094 c 0,0.54753 0.4497478,0.99991 0.997291,0.99989 0.5475299,-2e-5 1.0005399,-0.45236 1.0005365,-0.99989 V 279.0532 c 3.4e-6,-0.73929 0.5921734,-1.33144 1.3314523,-1.33144 0.7392823,0 1.3321015,0.59217 1.3321047,1.33144 6.658e-4,0.18281 0.1487499,0.33084 0.3315616,0.33157 H 8.17212 c 0.183827,7e-4 0.3334257,-0.14774 0.3341612,-0.33157 0,-0.93953 -0.465682,-1.84393 -1.1429152,-2.52117 -0.67723,-0.67724 -1.5790459,-1.13967 -2.5185786,-1.13967 z m 9.6517306,3.32668 c -0.183837,7.4e-4 -0.332284,0.15032 -0.331566,0.33416 6.67e-4,0.18283 0.148744,0.33085 0.331566,0.33157 0.183834,7.3e-4 0.333445,-0.14773 0.334161,-0.33157 6.66e-4,-0.18484 -0.149308,-0.33488 -0.334161,-0.33416 z m -7.1474552,1.24109 c -0.6749365,0 -1.2626695,0.37149 -1.6714653,0.87441 -0.2902866,0.35712 -0.4993412,0.78583 -0.5974626,1.23393 0.5904659,0.21141 1.4098715,0.32951 2.2292707,0.32897 0.8515037,-5.6e-4 1.7027843,-0.13201 2.2981864,-0.35822 -0.1008113,-0.43742 -0.306387,-0.85538 -0.5903126,-1.20468 -0.4087958,-0.50292 -0.9932801,-0.87441 -1.6682166,-0.87441 z m 8.4795562,0.091 c -0.547559,0 -0.99793,0.45234 -0.99794,0.9999 0,0.54756 0.450373,0.99728 0.99794,0.99728 0.547567,0 0.999894,-0.44972 0.999891,-0.99728 -1e-5,-0.54756 -0.452331,-0.9999 -0.999891,-0.9999 z m -1.997826,1.99718 c -0.915238,0 -1.663673,0.74843 -1.663667,1.66366 2e-6,0.91523 0.748436,1.66627 1.663667,1.66627 0.91523,0 1.665613,-0.75104 1.665613,-1.66627 6e-6,-0.91523 -0.750377,-1.66366 -1.665613,-1.66366 z m -4.1588385,0.67872 c -0.6842966,0.22956 -1.5215471,0.33555 -2.3625489,0.33612 -0.8099092,5.4e-4 -1.6144459,-0.0986 -2.2845326,-0.3127 0.038779,0.57775 0.3338883,1.01796 0.7534921,1.24434 0.4502607,0.24291 0.9962127,0.29189 1.5706977,0.29189 0.574485,0 1.119788,-0.0489 1.5700486,-0.29189 0.4252592,-0.22943 0.7209215,-0.6784 0.7528431,-1.26776 z m -0.4654891,1.99459 c -0.029924,3.3e-4 -0.059666,0.005 -0.088418,0.013 -0.1767504,0.0484 -0.2810796,0.23068 -0.2333936,0.40762 l 0.1716341,0.64363 c 0.048444,0.17707 0.2311101,0.28149 0.4082765,0.2334 0.1778022,-0.0473 0.2835029,-0.22989 0.2359933,-0.40763 l -0.1748829,-0.64102 c -0.03815,-0.14535 -0.1689479,-0.24711 -0.3192091,-0.24836 z m -3.8207755,0.003 c -0.00823,-9e-5 -0.016477,1.3e-4 -0.024698,6.6e-4 -0.1422091,0.009 -0.2627155,0.10807 -0.2997099,0.24575 l -0.17228,0.64167 c -0.04751,0.17775 0.058191,0.36032 0.2359933,0.40762 0.1769567,0.0477 0.3591726,-0.0566 0.4076275,-0.23339 l 0.1722832,-0.64362 c 0.047926,-0.17796 -0.057869,-0.36099 -0.2359966,-0.40828 -0.027194,-0.008 -0.055149,-0.0101 -0.083216,-0.0101 z m 1.2430372,0.32049 c -0.1848522,-7.3e-4 -0.3348869,0.14932 -0.3341645,0.33417 v 0.66573 c 6.657e-4,0.18382 0.1503276,0.33228 0.3341645,0.33156 0.1828218,-7.1e-4 0.3308493,-0.14874 0.3315616,-0.33156 v -0.66573 c 6.658e-4,-0.18385 -0.1477279,-0.33345 -0.3315616,-0.33417 z m 1.3321015,0 c -0.1848522,-7.3e-4 -0.3348836,0.14932 -0.3341613,0.33417 v 0.66573 c 6.657e-4,0.18382 0.1503276,0.33228 0.3341613,0.33156 0.1828216,-7.1e-4 0.3308525,-0.14874 0.3315648,-0.33156 v -0.66573 c 7.323e-4,-0.18385 -0.1477279,-0.33345 -0.3315648,-0.33417 z m 8.6290844,0.14693 c -0.842789,0 -1.493224,0.56614 -1.860001,1.25604 -0.30458,-0.15087 -0.617578,-0.30491 -0.992738,-0.30491 -0.856277,0 -1.605188,0.4811 -1.980275,1.18973 2.297244,-0.0394 3.92351,0.0891 7.170858,-0.25421 -0.04832,-0.52597 -0.253006,-0.94557 -0.558458,-1.24237 -0.498528,-0.48442 -1.190144,-0.64428 -1.779386,-0.64428 z m -11.4896265,2.4009 c -0.1374292,0.0303 -0.2967175,0.10253 -0.385522,0.26591 -0.088808,0.16339 -0.055841,0.35178 0.00716,0.48108 0.062931,0.1293 0.1531236,0.23478 0.2704513,0.34197 0.1577105,0.12619 0.2795617,0.30373 0.3822733,0.44403 2.5154295,0.4075 5.8033049,0.59972 8.2247109,0.56821 l -0.239245,-1.67276 c -2.687251,0.0294 -5.5090978,-0.17484 -6.7046855,-0.31251 -1.1955908,-0.13767 -1.2712107,-0.14231 -1.3438447,-0.14064 -0.072634,10e-4 -0.1425786,0.009 -0.2112948,0.0247 z m 15.0256485,0.003 c -1.38222,0.16625 -2.699367,0.28667 -3.920245,0.35366 l -0.224942,1.60516 c 1.296039,-0.10253 3.11909,-0.25578 4.335671,-0.46745 0.0757,-0.11574 0.162024,-0.22654 0.269153,-0.3244 l 0.282803,-0.26006 c 0.08737,-0.0799 0.165943,-0.18381 0.189187,-0.32961 0.02324,-0.14579 -0.04171,-0.31978 -0.147579,-0.41738 -0.158825,-0.1464 -0.339909,-0.18598 -0.483875,-0.1816 -0.143963,0.004 -0.220056,0.0113 -0.300173,0.0216 z m -4.592472,0.36081 -1.506335,0.0247 0.506781,3.54661 c 0.01006,0.0626 0.109842,0.14894 0.235722,0.15649 0.136568,-0.004 0.249052,-0.0933 0.272403,-0.22884 z m 4.531359,1.81905 c -1.294955,0.19796 -2.9925,0.33588 -4.175089,0.42843 l -0.229542,1.58499 c -0.04036,0.23273 -0.436095,0.56627 -0.895932,0.55847 -0.459834,-0.008 -0.836993,-0.34712 -0.899068,-0.7912 l -0.174884,-1.22613 c -2.365701,0.0362 -5.5358853,-0.13824 -8.0849307,-0.52336 l 0.4628893,3.80648 c 0.068622,0.56421 0.4981129,0.99713 1.0408462,1.14357 l 0.2789592,1.02329 c 0.037165,0.13899 0.1629798,0.23575 0.3068566,0.23599 h 0.6663785 c 0.1438767,-2.4e-4 0.2696923,-0.097 0.3068564,-0.23599 l 0.2633014,-0.96544 c 2.6132781,2e-5 5.2265551,2e-5 7.8398331,0 l 0.263302,0.96544 c 0.03723,0.13922 0.163389,0.23604 0.307509,0.23599 h 0.665725 c 0.144121,5e-5 0.270279,-0.0967 0.307507,-0.23599 l 0.282154,-1.03435 c 0.523204,-0.15725 0.933698,-0.58291 1.00054,-1.13251 z"
       style="color:#000000;font-style:normal;font-variant:normal;font-weight:normal;font-stretch:normal;font-size:medium;line-height:normal;font-family:sans-serif;font-variant-ligatures:normal;font-variant-position:normal;font-variant-caps:normal;font-variant-numeric:normal;font-variant-alternates:normal;font-variant-east-asian:normal;font-feature-settings:normal;font-variation-settings:normal;text-indent:0;text-align:start;text-decoration:none;text-decoration-line:none;text-decoration-style:solid;text-decoration-color:#000000;letter-spacing:normal;word-spacing:normal;text-transform:none;writing-mode:lr-tb;direction:ltr;text-orientation:mixed;dominant-baseline:auto;baseline-shift:baseline;text-anchor:start;white-space:normal;shape-padding:0;shape-margin:0;inline-size:0;clip-rule:nonzero;display:inline;overflow:visible;visibility:visible;isolation:auto;mix-blend-mode:normal;color-interpolation:sRGB;color-interpolation-filters:linearRGB;solid-color:#000000;solid-opacity:1;vector-effect:none;fill:#000000;fill-opacity:1;fill-rule:nonzero;stroke:none;stroke-width:0.529167;stroke-linecap:round;stroke-linejoin:round;stroke-miterlimit:1.5;stroke-dasharray:none;stroke-dashoffset:0;stroke-opacity:1;color-rendering:auto;image-rendering:auto;shape-rendering:auto;text-rendering:auto;enable-background:accumulate;stop-color:#000000"
       id="path1058" />
  </g>
</svg>
