<svg xmlns="http://www.w3.org/2000/svg" xmlns:xlink="http://www.w3.org/1999/xlink" width="100" zoomAndPan="magnify" viewBox="0 0 75 74.999997" height="100" preserveAspectRatio="xMidYMid meet" version="1.0"><defs><g/><clipPath id="ae09108a8d"><path d="M 14.828125 0 L 59.828125 0 L 59.828125 44 L 14.828125 44 Z M 14.828125 0 " clip-rule="nonzero"/></clipPath><clipPath id="a827a814c4"><path d="M 36 10 L 39 10 L 39 51 L 36 51 Z M 36 10 " clip-rule="nonzero"/></clipPath></defs><g clip-path="url(#ae09108a8d)"><path fill="#f49d19" d="M 59.8125 20.40625 L 47.21875 9.386719 L 47.21875 0.691406 C 47.21875 0.308594 46.910156 0 46.527344 0 C 46.144531 0 45.835938 0.308594 45.835938 0.691406 L 45.835938 8.175781 L 38.132812 1.4375 C 37.871094 1.207031 37.484375 1.207031 37.226562 1.433594 L 15.183594 20.402344 C 14.894531 20.652344 14.859375 21.089844 15.109375 21.378906 C 15.246094 21.539062 15.441406 21.621094 15.632812 21.621094 C 15.792969 21.621094 15.957031 21.566406 16.085938 21.453125 L 37.671875 2.875 L 45.835938 10.015625 L 45.835938 42.425781 C 45.835938 42.808594 46.144531 43.117188 46.53125 43.117188 C 46.914062 43.117188 47.222656 42.808594 47.222656 42.425781 L 47.222656 11.230469 L 58.902344 21.449219 C 59.1875 21.699219 59.625 21.671875 59.878906 21.382812 C 60.128906 21.097656 60.101562 20.660156 59.8125 20.40625 Z M 59.8125 20.40625 " fill-opacity="1" fill-rule="nonzero"/></g><path fill="#f49d19" d="M 19.878906 24.507812 C 19.496094 24.507812 19.1875 24.820312 19.1875 25.203125 L 19.1875 32.070312 C 19.1875 32.453125 19.496094 32.761719 19.878906 32.761719 C 20.261719 32.761719 20.570312 32.453125 20.570312 32.070312 L 20.570312 25.203125 C 20.570312 24.820312 20.261719 24.507812 19.878906 24.507812 Z M 19.878906 24.507812 " fill-opacity="1" fill-rule="nonzero"/><path fill="#f49d19" d="M 55.46875 24.507812 C 55.085938 24.507812 54.777344 24.820312 54.777344 25.203125 L 54.777344 32.070312 C 54.777344 32.453125 55.085938 32.761719 55.46875 32.761719 C 55.851562 32.761719 56.164062 32.453125 56.164062 32.070312 L 56.164062 25.203125 C 56.164062 24.820312 55.851562 24.507812 55.46875 24.507812 Z M 55.46875 24.507812 " fill-opacity="1" fill-rule="nonzero"/><path fill="#f49d19" d="M 28.730469 16.378906 C 28.347656 16.378906 28.039062 16.691406 28.039062 17.074219 L 28.039062 39.65625 C 28.039062 40.039062 28.347656 40.347656 28.730469 40.347656 C 29.117188 40.347656 29.425781 40.039062 29.425781 39.65625 L 29.425781 17.074219 C 29.425781 16.691406 29.117188 16.378906 28.730469 16.378906 Z M 28.730469 16.378906 " fill-opacity="1" fill-rule="nonzero"/><g clip-path="url(#a827a814c4)"><path fill="#f49d19" d="M 37.496094 10.75 C 37.113281 10.75 36.800781 11.058594 36.800781 11.441406 L 36.800781 50.46875 C 36.800781 50.851562 37.113281 51.160156 37.496094 51.160156 C 37.878906 51.160156 38.1875 50.851562 38.1875 50.46875 L 38.1875 11.441406 C 38.1875 11.058594 37.875 10.75 37.496094 10.75 Z M 37.496094 10.75 " fill-opacity="1" fill-rule="nonzero"/></g><g fill="#000000" fill-opacity="1"><g transform="translate(7.779667, 56.89844)"><g><path d="M 3.09375 -1.046875 L 0.90625 -1.046875 L 0.4375 0 L 0.015625 0 L 1.796875 -3.921875 L 2.203125 -3.921875 L 4 0 L 3.5625 0 Z M 2.9375 -1.375 L 2 -3.484375 L 1.0625 -1.375 Z M 2.9375 -1.375 "/></g></g></g><g fill="#000000" fill-opacity="1"><g transform="translate(11.786732, 56.89844)"><g><path d="M 3.109375 -2.015625 C 3.359375 -1.960938 3.550781 -1.851562 3.6875 -1.6875 C 3.832031 -1.519531 3.90625 -1.304688 3.90625 -1.046875 C 3.90625 -0.710938 3.78125 -0.453125 3.53125 -0.265625 C 3.289062 -0.0859375 2.925781 0 2.4375 0 L 0.640625 0 L 0.640625 -3.921875 L 2.328125 -3.921875 C 2.765625 -3.921875 3.101562 -3.832031 3.34375 -3.65625 C 3.582031 -3.476562 3.703125 -3.226562 3.703125 -2.90625 C 3.703125 -2.6875 3.648438 -2.5 3.546875 -2.34375 C 3.441406 -2.195312 3.296875 -2.085938 3.109375 -2.015625 Z M 1.046875 -3.578125 L 1.046875 -2.15625 L 2.296875 -2.15625 C 2.617188 -2.15625 2.863281 -2.210938 3.03125 -2.328125 C 3.207031 -2.453125 3.296875 -2.628906 3.296875 -2.859375 C 3.296875 -3.085938 3.207031 -3.265625 3.03125 -3.390625 C 2.863281 -3.515625 2.617188 -3.578125 2.296875 -3.578125 Z M 2.4375 -0.34375 C 2.78125 -0.34375 3.039062 -0.398438 3.21875 -0.515625 C 3.40625 -0.640625 3.5 -0.828125 3.5 -1.078125 C 3.5 -1.566406 3.144531 -1.8125 2.4375 -1.8125 L 1.046875 -1.8125 L 1.046875 -0.34375 Z M 2.4375 -0.34375 "/></g></g></g><g fill="#000000" fill-opacity="1"><g transform="translate(16.000577, 56.89844)"><g><path d="M 3.40625 -0.359375 L 3.40625 0 L 0.640625 0 L 0.640625 -3.921875 L 3.328125 -3.921875 L 3.328125 -3.5625 L 1.046875 -3.5625 L 1.046875 -2.171875 L 3.078125 -2.171875 L 3.078125 -1.8125 L 1.046875 -1.8125 L 1.046875 -0.359375 Z M 3.40625 -0.359375 "/></g></g></g><g fill="#000000" fill-opacity="1"><g transform="translate(19.739387, 56.89844)"><g><path d="M 0.640625 -3.921875 L 1.046875 -3.921875 L 1.046875 -0.359375 L 3.25 -0.359375 L 3.25 0 L 0.640625 0 Z M 0.640625 -3.921875 "/></g></g></g><g fill="#000000" fill-opacity="1"><g transform="translate(23.031105, 56.89844)"><g><path d="M 3.09375 -1.046875 L 0.90625 -1.046875 L 0.4375 0 L 0.015625 0 L 1.796875 -3.921875 L 2.203125 -3.921875 L 4 0 L 3.5625 0 Z M 2.9375 -1.375 L 2 -3.484375 L 1.0625 -1.375 Z M 2.9375 -1.375 "/></g></g></g><g fill="#000000" fill-opacity="1"><g transform="translate(27.03817, 56.89844)"><g><path d="M 3.3125 0 L 2.421875 -1.265625 C 2.316406 -1.242188 2.210938 -1.234375 2.109375 -1.234375 L 1.046875 -1.234375 L 1.046875 0 L 0.640625 0 L 0.640625 -3.921875 L 2.109375 -3.921875 C 2.609375 -3.921875 3 -3.800781 3.28125 -3.5625 C 3.5625 -3.320312 3.703125 -2.992188 3.703125 -2.578125 C 3.703125 -2.265625 3.625 -2.003906 3.46875 -1.796875 C 3.3125 -1.585938 3.09375 -1.4375 2.8125 -1.34375 L 3.765625 0 Z M 2.09375 -1.59375 C 2.476562 -1.59375 2.773438 -1.675781 2.984375 -1.84375 C 3.191406 -2.019531 3.296875 -2.265625 3.296875 -2.578125 C 3.296875 -2.890625 3.191406 -3.128906 2.984375 -3.296875 C 2.773438 -3.472656 2.476562 -3.5625 2.09375 -3.5625 L 1.046875 -3.5625 L 1.046875 -1.59375 Z M 2.09375 -1.59375 "/></g></g></g><g fill="#000000" fill-opacity="1"><g transform="translate(31.078764, 56.89844)"><g><path d="M 0.640625 -3.921875 L 2.234375 -3.921875 C 2.648438 -3.921875 3.015625 -3.835938 3.328125 -3.671875 C 3.640625 -3.503906 3.882812 -3.269531 4.0625 -2.96875 C 4.238281 -2.675781 4.328125 -2.335938 4.328125 -1.953125 C 4.328125 -1.578125 4.238281 -1.238281 4.0625 -0.9375 C 3.882812 -0.644531 3.640625 -0.414062 3.328125 -0.25 C 3.015625 -0.0820312 2.648438 0 2.234375 0 L 0.640625 0 Z M 2.203125 -0.359375 C 2.546875 -0.359375 2.847656 -0.425781 3.109375 -0.5625 C 3.367188 -0.695312 3.566406 -0.882812 3.703125 -1.125 C 3.847656 -1.363281 3.921875 -1.640625 3.921875 -1.953125 C 3.921875 -2.265625 3.847656 -2.539062 3.703125 -2.78125 C 3.566406 -3.03125 3.367188 -3.222656 3.109375 -3.359375 C 2.847656 -3.492188 2.546875 -3.5625 2.203125 -3.5625 L 1.046875 -3.5625 L 1.046875 -0.359375 Z M 2.203125 -0.359375 "/></g></g></g><g fill="#000000" fill-opacity="1"><g transform="translate(35.69499, 56.89844)"><g><path d="M 2.34375 0.03125 C 1.957031 0.03125 1.609375 -0.0507812 1.296875 -0.21875 C 0.984375 -0.394531 0.738281 -0.632812 0.5625 -0.9375 C 0.382812 -1.238281 0.296875 -1.578125 0.296875 -1.953125 C 0.296875 -2.328125 0.382812 -2.664062 0.5625 -2.96875 C 0.738281 -3.269531 0.984375 -3.507812 1.296875 -3.6875 C 1.609375 -3.863281 1.957031 -3.953125 2.34375 -3.953125 C 2.738281 -3.953125 3.085938 -3.863281 3.390625 -3.6875 C 3.703125 -3.519531 3.945312 -3.28125 4.125 -2.96875 C 4.3125 -2.664062 4.40625 -2.328125 4.40625 -1.953125 C 4.40625 -1.578125 4.3125 -1.238281 4.125 -0.9375 C 3.945312 -0.632812 3.703125 -0.394531 3.390625 -0.21875 C 3.085938 -0.0507812 2.738281 0.03125 2.34375 0.03125 Z M 2.34375 -0.328125 C 2.65625 -0.328125 2.9375 -0.394531 3.1875 -0.53125 C 3.4375 -0.675781 3.628906 -0.875 3.765625 -1.125 C 3.910156 -1.375 3.984375 -1.648438 3.984375 -1.953125 C 3.984375 -2.265625 3.910156 -2.539062 3.765625 -2.78125 C 3.628906 -3.03125 3.4375 -3.222656 3.1875 -3.359375 C 2.9375 -3.503906 2.65625 -3.578125 2.34375 -3.578125 C 2.039062 -3.578125 1.757812 -3.503906 1.5 -3.359375 C 1.25 -3.222656 1.050781 -3.03125 0.90625 -2.78125 C 0.769531 -2.539062 0.703125 -2.265625 0.703125 -1.953125 C 0.703125 -1.648438 0.769531 -1.375 0.90625 -1.125 C 1.050781 -0.875 1.25 -0.675781 1.5 -0.53125 C 1.757812 -0.394531 2.039062 -0.328125 2.34375 -0.328125 Z M 2.34375 -0.328125 "/></g></g></g><g fill="#f49d19" fill-opacity="1"><g transform="translate(42.468778, 56.756924)"><g><path d="M 0.40625 -3.40625 L 1.1875 -3.40625 L 1.1875 -0.640625 L 2.890625 -0.640625 L 2.890625 0 L 0.40625 0 Z M 0.40625 -3.40625 "/></g></g></g><g fill="#f49d19" fill-opacity="1"><g transform="translate(45.401689, 56.756924)"><g><path d="M 2.046875 0.0625 C 1.691406 0.0625 1.375 -0.015625 1.09375 -0.171875 C 0.8125 -0.328125 0.585938 -0.535156 0.421875 -0.796875 C 0.265625 -1.066406 0.1875 -1.367188 0.1875 -1.703125 C 0.1875 -2.035156 0.265625 -2.332031 0.421875 -2.59375 C 0.585938 -2.863281 0.8125 -3.070312 1.09375 -3.21875 C 1.375 -3.375 1.691406 -3.453125 2.046875 -3.453125 C 2.398438 -3.453125 2.71875 -3.375 3 -3.21875 C 3.28125 -3.070312 3.5 -2.863281 3.65625 -2.59375 C 3.820312 -2.332031 3.90625 -2.035156 3.90625 -1.703125 C 3.90625 -1.367188 3.820312 -1.066406 3.65625 -0.796875 C 3.5 -0.535156 3.28125 -0.328125 3 -0.171875 C 2.71875 -0.015625 2.398438 0.0625 2.046875 0.0625 Z M 2.046875 -0.609375 C 2.253906 -0.609375 2.4375 -0.65625 2.59375 -0.75 C 2.757812 -0.84375 2.882812 -0.972656 2.96875 -1.140625 C 3.0625 -1.304688 3.109375 -1.492188 3.109375 -1.703125 C 3.109375 -1.910156 3.0625 -2.097656 2.96875 -2.265625 C 2.882812 -2.429688 2.757812 -2.5625 2.59375 -2.65625 C 2.4375 -2.75 2.253906 -2.796875 2.046875 -2.796875 C 1.847656 -2.796875 1.664062 -2.75 1.5 -2.65625 C 1.34375 -2.5625 1.21875 -2.429688 1.125 -2.265625 C 1.03125 -2.097656 0.984375 -1.910156 0.984375 -1.703125 C 0.984375 -1.492188 1.03125 -1.304688 1.125 -1.140625 C 1.21875 -0.972656 1.34375 -0.84375 1.5 -0.75 C 1.664062 -0.65625 1.847656 -0.609375 2.046875 -0.609375 Z M 2.046875 -0.609375 "/></g></g></g><g fill="#f49d19" fill-opacity="1"><g transform="translate(49.499994, 56.756924)"><g><path d="M 1.875 -3.40625 C 2.175781 -3.40625 2.4375 -3.351562 2.65625 -3.25 C 2.882812 -3.144531 3.054688 -3 3.171875 -2.8125 C 3.296875 -2.632812 3.359375 -2.421875 3.359375 -2.171875 C 3.359375 -1.921875 3.296875 -1.703125 3.171875 -1.515625 C 3.054688 -1.328125 2.882812 -1.179688 2.65625 -1.078125 C 2.4375 -0.984375 2.175781 -0.9375 1.875 -0.9375 L 1.1875 -0.9375 L 1.1875 0 L 0.40625 0 L 0.40625 -3.40625 Z M 1.828125 -1.578125 C 2.066406 -1.578125 2.25 -1.628906 2.375 -1.734375 C 2.5 -1.835938 2.5625 -1.984375 2.5625 -2.171875 C 2.5625 -2.359375 2.5 -2.503906 2.375 -2.609375 C 2.25 -2.710938 2.066406 -2.765625 1.828125 -2.765625 L 1.1875 -2.765625 L 1.1875 -1.578125 Z M 1.828125 -1.578125 "/></g></g></g><g fill="#f49d19" fill-opacity="1"><g transform="translate(53.054449, 56.756924)"><g><path d="M 3.03125 -0.625 L 3.03125 0 L 0.40625 0 L 0.40625 -3.40625 L 2.96875 -3.40625 L 2.96875 -2.765625 L 1.1875 -2.765625 L 1.1875 -2.03125 L 2.765625 -2.03125 L 2.765625 -1.421875 L 1.1875 -1.421875 L 1.1875 -0.625 Z M 3.03125 -0.625 "/></g></g></g><g fill="#f49d19" fill-opacity="1"><g transform="translate(56.312701, 56.756924)"><g><path d="M 1.515625 0.0625 C 1.253906 0.0625 0.992188 0.0234375 0.734375 -0.046875 C 0.484375 -0.117188 0.285156 -0.210938 0.140625 -0.328125 L 0.40625 -0.921875 C 0.550781 -0.816406 0.722656 -0.734375 0.921875 -0.671875 C 1.117188 -0.609375 1.320312 -0.578125 1.53125 -0.578125 C 1.75 -0.578125 1.910156 -0.609375 2.015625 -0.671875 C 2.128906 -0.734375 2.1875 -0.820312 2.1875 -0.9375 C 2.1875 -1.019531 2.15625 -1.085938 2.09375 -1.140625 C 2.03125 -1.191406 1.945312 -1.234375 1.84375 -1.265625 C 1.75 -1.296875 1.613281 -1.332031 1.4375 -1.375 C 1.175781 -1.4375 0.960938 -1.5 0.796875 -1.5625 C 0.640625 -1.625 0.5 -1.722656 0.375 -1.859375 C 0.257812 -1.992188 0.203125 -2.175781 0.203125 -2.40625 C 0.203125 -2.601562 0.253906 -2.78125 0.359375 -2.9375 C 0.472656 -3.09375 0.632812 -3.21875 0.84375 -3.3125 C 1.0625 -3.40625 1.328125 -3.453125 1.640625 -3.453125 C 1.859375 -3.453125 2.066406 -3.425781 2.265625 -3.375 C 2.472656 -3.320312 2.65625 -3.25 2.8125 -3.15625 L 2.578125 -2.5625 C 2.265625 -2.738281 1.945312 -2.828125 1.625 -2.828125 C 1.40625 -2.828125 1.242188 -2.789062 1.140625 -2.71875 C 1.035156 -2.644531 0.984375 -2.550781 0.984375 -2.4375 C 0.984375 -2.320312 1.039062 -2.234375 1.15625 -2.171875 C 1.28125 -2.117188 1.46875 -2.066406 1.71875 -2.015625 C 1.976562 -1.953125 2.191406 -1.890625 2.359375 -1.828125 C 2.523438 -1.765625 2.664062 -1.664062 2.78125 -1.53125 C 2.90625 -1.40625 2.96875 -1.226562 2.96875 -1 C 2.96875 -0.800781 2.910156 -0.617188 2.796875 -0.453125 C 2.691406 -0.296875 2.53125 -0.171875 2.3125 -0.078125 C 2.09375 0.015625 1.828125 0.0625 1.515625 0.0625 Z M 1.515625 0.0625 "/></g></g></g><g fill="#000000" fill-opacity="1"><g transform="translate(28.465355, 62.128712)"><g><path d="M 0.46875 -2.84375 L 0.765625 -2.84375 L 0.765625 0 L 0.46875 0 Z M 0.46875 -2.84375 "/></g></g></g><g fill="#000000" fill-opacity="1"><g transform="translate(29.925924, 62.128712)"><g><path d="M 3.421875 -2.84375 L 3.421875 0 L 3.125 0 L 3.125 -2.28125 L 2.015625 -0.359375 L 1.875 -0.359375 L 0.75 -2.265625 L 0.75 0 L 0.46875 0 L 0.46875 -2.84375 L 0.703125 -2.84375 L 1.953125 -0.734375 L 3.171875 -2.84375 Z M 3.421875 -2.84375 "/></g></g></g><g fill="#000000" fill-opacity="1"><g transform="translate(34.035494, 62.128712)"><g><path d="M 1.703125 0.03125 C 1.421875 0.03125 1.164062 -0.03125 0.9375 -0.15625 C 0.707031 -0.289062 0.53125 -0.46875 0.40625 -0.6875 C 0.28125 -0.90625 0.21875 -1.148438 0.21875 -1.421875 C 0.21875 -1.691406 0.28125 -1.9375 0.40625 -2.15625 C 0.53125 -2.375 0.707031 -2.546875 0.9375 -2.671875 C 1.164062 -2.804688 1.421875 -2.875 1.703125 -2.875 C 1.984375 -2.875 2.238281 -2.8125 2.46875 -2.6875 C 2.695312 -2.5625 2.875 -2.382812 3 -2.15625 C 3.132812 -1.9375 3.203125 -1.691406 3.203125 -1.421875 C 3.203125 -1.148438 3.132812 -0.898438 3 -0.671875 C 2.875 -0.453125 2.695312 -0.28125 2.46875 -0.15625 C 2.238281 -0.03125 1.984375 0.03125 1.703125 0.03125 Z M 1.703125 -0.25 C 1.929688 -0.25 2.132812 -0.296875 2.3125 -0.390625 C 2.5 -0.492188 2.640625 -0.632812 2.734375 -0.8125 C 2.835938 -1 2.890625 -1.203125 2.890625 -1.421875 C 2.890625 -1.640625 2.835938 -1.835938 2.734375 -2.015625 C 2.640625 -2.203125 2.5 -2.34375 2.3125 -2.4375 C 2.132812 -2.539062 1.929688 -2.59375 1.703125 -2.59375 C 1.484375 -2.59375 1.28125 -2.539062 1.09375 -2.4375 C 0.914062 -2.34375 0.769531 -2.203125 0.65625 -2.015625 C 0.550781 -1.835938 0.5 -1.640625 0.5 -1.421875 C 0.5 -1.203125 0.550781 -1 0.65625 -0.8125 C 0.769531 -0.632812 0.914062 -0.492188 1.09375 -0.390625 C 1.28125 -0.296875 1.484375 -0.25 1.703125 -0.25 Z M 2 -3.578125 L 2.375 -3.578125 L 1.71875 -3.078125 L 1.4375 -3.078125 Z M 2 -3.578125 "/></g></g></g><g fill="#000000" fill-opacity="1"><g transform="translate(37.674493, 62.128712)"><g><path d="M 2.828125 -2.84375 L 1.5625 0 L 1.265625 0 L 0.015625 -2.84375 L 0.34375 -2.84375 L 1.421875 -0.375 L 2.515625 -2.84375 Z M 2.828125 -2.84375 "/></g></g></g><g fill="#000000" fill-opacity="1"><g transform="translate(40.741502, 62.128712)"><g><path d="M 2.46875 -0.265625 L 2.46875 0 L 0.46875 0 L 0.46875 -2.84375 L 2.40625 -2.84375 L 2.40625 -2.578125 L 0.765625 -2.578125 L 0.765625 -1.578125 L 2.234375 -1.578125 L 2.234375 -1.3125 L 0.765625 -1.3125 L 0.765625 -0.265625 Z M 2.46875 -0.265625 "/></g></g></g><g fill="#000000" fill-opacity="1"><g transform="translate(43.690867, 62.128712)"><g><path d="M 0.46875 -2.84375 L 0.765625 -2.84375 L 0.765625 0 L 0.46875 0 Z M 0.46875 -2.84375 "/></g></g></g><g fill="#000000" fill-opacity="1"><g transform="translate(45.151435, 62.128712)"><g><path d="M 1.25 0.03125 C 1.039062 0.03125 0.835938 0 0.640625 -0.0625 C 0.441406 -0.132812 0.289062 -0.226562 0.1875 -0.34375 L 0.3125 -0.578125 C 0.414062 -0.472656 0.550781 -0.390625 0.71875 -0.328125 C 0.882812 -0.265625 1.0625 -0.234375 1.25 -0.234375 C 1.5 -0.234375 1.6875 -0.28125 1.8125 -0.375 C 1.945312 -0.46875 2.015625 -0.585938 2.015625 -0.734375 C 2.015625 -0.847656 1.976562 -0.9375 1.90625 -1 C 1.832031 -1.070312 1.742188 -1.125 1.640625 -1.15625 C 1.546875 -1.195312 1.410156 -1.238281 1.234375 -1.28125 C 1.015625 -1.332031 0.84375 -1.382812 0.71875 -1.4375 C 0.59375 -1.488281 0.484375 -1.566406 0.390625 -1.671875 C 0.304688 -1.773438 0.265625 -1.914062 0.265625 -2.09375 C 0.265625 -2.226562 0.300781 -2.351562 0.375 -2.46875 C 0.445312 -2.59375 0.5625 -2.691406 0.71875 -2.765625 C 0.875 -2.835938 1.070312 -2.875 1.3125 -2.875 C 1.46875 -2.875 1.625 -2.847656 1.78125 -2.796875 C 1.9375 -2.753906 2.070312 -2.691406 2.1875 -2.609375 L 2.09375 -2.375 C 1.96875 -2.457031 1.835938 -2.515625 1.703125 -2.546875 C 1.566406 -2.585938 1.4375 -2.609375 1.3125 -2.609375 C 1.0625 -2.609375 0.875 -2.5625 0.75 -2.46875 C 0.625 -2.375 0.5625 -2.25 0.5625 -2.09375 C 0.5625 -1.976562 0.59375 -1.882812 0.65625 -1.8125 C 0.726562 -1.75 0.816406 -1.695312 0.921875 -1.65625 C 1.023438 -1.625 1.164062 -1.585938 1.34375 -1.546875 C 1.550781 -1.492188 1.71875 -1.441406 1.84375 -1.390625 C 1.976562 -1.335938 2.085938 -1.257812 2.171875 -1.15625 C 2.265625 -1.0625 2.3125 -0.925781 2.3125 -0.75 C 2.3125 -0.601562 2.269531 -0.472656 2.1875 -0.359375 C 2.113281 -0.242188 1.992188 -0.148438 1.828125 -0.078125 C 1.671875 -0.00390625 1.476562 0.03125 1.25 0.03125 Z M 1.25 0.03125 "/></g></g></g></svg>